<svg width="115" height="50" viewBox="0 0 115 50" fill="none" xmlns="http://www.w3.org/2000/svg">
<rect width="115" height="50" rx="10" fill="#F5F6FA"/>
<rect x="5" y="5" width="40" height="40" rx="10" fill="#FEFEFE"/>
<g clip-path="url(#clip0_1_61)">
<path d="M35.0845 33.985C33.9153 33.985 33.222 33.3835 33.1689 32.5172H34.2867C34.2867 32.806 34.4459 33.1903 35.1376 33.2142C35.6169 33.2142 35.8822 32.9255 35.8822 32.7085C35.8291 32.3718 35.4028 32.348 34.9783 32.2744C34.499 32.2045 34.1276 32.107 33.8605 31.9875C33.489 31.7943 33.275 31.3842 33.275 30.9519C33.275 30.1812 33.9153 29.5796 35.0314 29.5796C36.0963 29.5796 36.7879 30.1334 36.839 30.9758H35.7761C35.7761 30.7605 35.723 30.3982 35.0844 30.3982C34.6582 30.3982 34.3929 30.47 34.3398 30.7826C34.3398 31.2168 35.2437 31.1928 35.9353 31.3602C36.5738 31.5294 37.0001 31.9378 37.0001 32.5172C37.0001 33.5767 36.1493 33.985 35.0845 33.985ZM14.7135 26.8768L18.3838 24.7339L20.3524 28.1294H15.4051" fill="#1D1E20"/>
<path d="M22.4314 33.8572V29.5715V33.8572Z" fill="#1D1E20"/>
<path d="M22.4314 33.8572V29.5715" stroke="#1D1E20"/>
<path d="M13.01 31.7777C13.01 32.4509 13.5955 33.0046 14.2321 33.0046C14.9256 33.0046 15.4562 32.4509 15.4562 31.7777C15.4562 31.1284 14.9256 30.5509 14.2321 30.5509C13.5955 30.5509 13.01 31.1284 13.01 31.7777ZM14.1791 33.9923C13.0099 33.9923 12 33.0046 12 31.7777C12 30.5509 13.01 29.5871 14.1791 29.5871C14.6585 29.5871 15.0847 29.7085 15.4562 29.9715V29.6348H16.521V33.8948H15.4562V33.63C15.1379 33.8709 14.6586 33.9923 14.1792 33.9923H14.1791ZM28.3849 28.1284L23.2784 19.1744L26.9486 17.0076L33.3322 28.1284H28.3849ZM17.9042 31.7777C17.9042 32.4509 18.4367 33.0046 19.1283 33.0046C19.7649 33.0046 20.3523 32.4509 20.3523 31.7777C20.3523 31.1284 19.7649 30.5509 19.1283 30.5509C18.4367 30.5509 17.9042 31.1284 17.9042 31.7777ZM19.0752 33.9923C17.8511 33.9923 16.8943 33.0046 16.8943 31.7777C16.8943 30.5509 17.8511 29.5871 19.0752 29.5871C19.5527 29.5871 19.979 29.7085 20.3523 29.9715V28.167H21.4153V33.8948H20.3522V33.63C19.9789 33.8709 19.5527 33.9923 19.0751 33.9923H19.0752ZM19.0228 23.0496L22.746 20.9326L26.8426 28.1282H22.9583V29.1876H21.8952V28.1282L19.0228 23.0496ZM36.3102 29.221C36.0432 29.221 35.7779 28.98 35.7779 28.6912C35.7779 28.4024 36.0432 28.1615 36.3102 28.1615C36.6286 28.1615 36.8428 28.4025 36.8428 28.6912C36.8428 28.9799 36.6286 29.2211 36.3102 29.2211V29.221ZM36.3102 28.2351C36.0432 28.2351 35.884 28.4503 35.884 28.6912C35.884 28.9322 36.0432 29.1493 36.3102 29.1493C36.5756 29.1493 36.7348 28.9323 36.7348 28.6912C36.7348 28.4502 36.5756 28.2351 36.3102 28.2351Z" fill="#1D1E20"/>
<path d="M36.4201 28.9819L36.3139 28.7409H36.2078V28.9819H36.1273V28.4043H36.367C36.4201 28.4043 36.5262 28.478 36.5262 28.5736C36.5262 28.6691 36.4731 28.7171 36.4201 28.7409L36.5262 28.9819H36.4201ZM36.3139 28.478H36.2078V28.6692H36.3139C36.4201 28.6692 36.4201 28.6454 36.4201 28.5736C36.4201 28.524 36.4201 28.478 36.3139 28.478ZM29.2845 31.7778C29.2845 32.4509 29.817 33.0046 30.5085 33.0046C31.147 33.0046 31.7307 32.4509 31.7307 31.7778C31.7307 31.1285 31.147 30.5509 30.5085 30.5509C29.8169 30.5509 29.2845 31.1285 29.2845 31.7778ZM30.4537 33.9924C29.2315 33.9924 28.2745 33.0046 28.2745 31.7778C28.2745 30.5509 29.2315 29.5871 30.4536 29.5871C30.933 29.5871 31.3593 29.7085 31.7307 29.9715V29.6349H32.7425V33.8949H31.7308V33.63C31.3593 33.871 30.933 33.9924 30.4536 33.9924H30.4537ZM24.3939 31.7778C24.3939 32.4509 24.9794 33.0046 25.6179 33.0046C26.3096 33.0046 26.8419 32.4509 26.8419 31.7778C26.8419 31.1285 26.3095 30.5509 25.6179 30.5509C24.9794 30.5509 24.3939 31.1285 24.3939 31.7778ZM26.8419 28.1671H27.9049V33.8949H26.8419V33.63C26.5217 33.871 26.0955 33.9924 25.6179 33.9924C24.3939 33.9924 23.3839 33.0046 23.3839 31.7778C23.3839 30.5509 24.3939 29.5871 25.6179 29.5871C26.0954 29.5871 26.5217 29.7085 26.8419 29.9715V28.1671Z" fill="#1D1E20"/>
</g>
<path d="M57.12 31H55.3729L59.2987 20.0909H61.2003L65.1261 31H63.3789L60.2947 22.0724H60.2095L57.12 31ZM57.413 26.728H63.0806V28.1129H57.413V26.728ZM69.5046 31.1598C68.8441 31.1598 68.2546 30.9911 67.7362 30.6538C67.2212 30.3129 66.8164 29.8281 66.5217 29.1996C66.2305 28.5675 66.0849 27.8093 66.0849 26.9251C66.0849 26.0408 66.2322 25.2844 66.527 24.6559C66.8253 24.0273 67.2337 23.5462 67.7521 23.2124C68.2706 22.8786 68.8583 22.7116 69.5153 22.7116C70.0231 22.7116 70.4315 22.7969 70.7404 22.9673C71.0529 23.1342 71.2944 23.3295 71.4648 23.5533C71.6388 23.777 71.7738 23.9741 71.8697 24.1445H71.9656V20.0909H73.5582V31H72.0028V29.7269H71.8697C71.7738 29.9009 71.6353 30.0998 71.4542 30.3235C71.2766 30.5472 71.0316 30.7425 70.7191 30.9094C70.4066 31.0763 70.0018 31.1598 69.5046 31.1598ZM69.8562 29.8015C70.3143 29.8015 70.7013 29.6808 71.0174 29.4393C71.337 29.1942 71.5785 28.8551 71.7418 28.4219C71.9087 27.9886 71.9922 27.4844 71.9922 26.9091C71.9922 26.3409 71.9105 25.8437 71.7472 25.4176C71.5838 24.9915 71.3441 24.6594 71.0281 24.4215C70.712 24.1836 70.3214 24.0646 69.8562 24.0646C69.3768 24.0646 68.9773 24.1889 68.6577 24.4375C68.3381 24.6861 68.0966 25.0252 67.9332 25.4549C67.7734 25.8846 67.6935 26.3693 67.6935 26.9091C67.6935 27.456 67.7752 27.9478 67.9386 28.3846C68.1019 28.8214 68.3434 29.1676 68.663 29.4233C68.9862 29.6754 69.3839 29.8015 69.8562 29.8015ZM75.8314 31V22.8182H77.4241V31H75.8314ZM76.6357 21.5558C76.3588 21.5558 76.1208 21.4634 75.922 21.2788C75.7267 21.0906 75.629 20.8668 75.629 20.6076C75.629 20.3448 75.7267 20.1211 75.922 19.9364C76.1208 19.7482 76.3588 19.6541 76.6357 19.6541C76.9127 19.6541 77.1489 19.7482 77.3442 19.9364C77.5431 20.1211 77.6425 20.3448 77.6425 20.6076C77.6425 20.8668 77.5431 21.0906 77.3442 21.2788C77.1489 21.4634 76.9127 21.5558 76.6357 21.5558ZM82.6296 31.1598C81.9691 31.1598 81.3796 30.9911 80.8612 30.6538C80.3462 30.3129 79.9414 29.8281 79.6467 29.1996C79.3555 28.5675 79.2099 27.8093 79.2099 26.9251C79.2099 26.0408 79.3572 25.2844 79.652 24.6559C79.9503 24.0273 80.3587 23.5462 80.8771 23.2124C81.3956 22.8786 81.9833 22.7116 82.6403 22.7116C83.1481 22.7116 83.5565 22.7969 83.8654 22.9673C84.1779 23.1342 84.4194 23.3295 84.5898 23.5533C84.7638 23.777 84.8988 23.9741 84.9947 24.1445H85.0906V20.0909H86.6832V31H85.1278V29.7269H84.9947C84.8988 29.9009 84.7603 30.0998 84.5792 30.3235C84.4016 30.5472 84.1566 30.7425 83.8441 30.9094C83.5316 31.0763 83.1268 31.1598 82.6296 31.1598ZM82.9812 29.8015C83.4393 29.8015 83.8263 29.6808 84.1424 29.4393C84.462 29.1942 84.7035 28.8551 84.8668 28.4219C85.0337 27.9886 85.1172 27.4844 85.1172 26.9091C85.1172 26.3409 85.0355 25.8437 84.8722 25.4176C84.7088 24.9915 84.4691 24.6594 84.1531 24.4215C83.837 24.1836 83.4464 24.0646 82.9812 24.0646C82.5018 24.0646 82.1023 24.1889 81.7827 24.4375C81.4631 24.6861 81.2216 25.0252 81.0582 25.4549C80.8984 25.8846 80.8185 26.3693 80.8185 26.9091C80.8185 27.456 80.9002 27.9478 81.0636 28.3846C81.2269 28.8214 81.4684 29.1676 81.788 29.4233C82.1112 29.6754 82.5089 29.8015 82.9812 29.8015ZM91.3374 31.1811C90.819 31.1811 90.3502 31.0852 89.9312 30.8935C89.5122 30.6982 89.1801 30.4158 88.9351 30.0465C88.6936 29.6772 88.5729 29.2244 88.5729 28.6882C88.5729 28.2266 88.6617 27.8466 88.8392 27.5483C89.0168 27.25 89.2565 27.0138 89.5583 26.8398C89.8602 26.6658 90.1975 26.5344 90.5704 26.4457C90.9433 26.3569 91.3232 26.2894 91.7103 26.2433C92.2004 26.1864 92.5981 26.1403 92.9035 26.1048C93.2089 26.0657 93.4308 26.0036 93.5693 25.9183C93.7078 25.8331 93.7771 25.6946 93.7771 25.5028V25.4656C93.7771 25.0004 93.6457 24.6399 93.3829 24.3842C93.1237 24.1286 92.7366 24.0007 92.2217 24.0007C91.6855 24.0007 91.2629 24.1197 90.9539 24.3576C90.6485 24.592 90.4372 24.853 90.32 25.1406L88.8232 24.7997C89.0008 24.3026 89.26 23.9013 89.6009 23.5959C89.9454 23.2869 90.3414 23.0632 90.7888 22.9247C91.2362 22.7827 91.7068 22.7116 92.2004 22.7116C92.5271 22.7116 92.8733 22.7507 93.2391 22.8288C93.6084 22.9034 93.9529 23.0419 94.2725 23.2443C94.5956 23.4467 94.8602 23.7362 95.0661 24.1126C95.2721 24.4854 95.3751 24.9702 95.3751 25.5668V31H93.8197V29.8814H93.7558C93.6528 30.0874 93.4983 30.2898 93.2923 30.4886C93.0864 30.6875 92.8218 30.8526 92.4987 30.984C92.1755 31.1154 91.7884 31.1811 91.3374 31.1811ZM91.6837 29.9027C92.124 29.9027 92.5004 29.8157 92.8129 29.6417C93.129 29.4677 93.3687 29.2404 93.532 28.9599C93.699 28.6758 93.7824 28.3722 93.7824 28.049V26.9943C93.7256 27.0511 93.6155 27.1044 93.4521 27.1541C93.2923 27.2003 93.1095 27.2411 92.9035 27.2766C92.6975 27.3086 92.4969 27.3388 92.3016 27.3672C92.1063 27.392 91.9429 27.4134 91.8115 27.4311C91.5026 27.4702 91.2203 27.5359 90.9646 27.6282C90.7124 27.7205 90.51 27.8537 90.3573 28.0277C90.2082 28.1982 90.1336 28.4254 90.1336 28.7095C90.1336 29.1037 90.2792 29.402 90.5704 29.6044C90.8616 29.8033 91.2327 29.9027 91.6837 29.9027ZM103.627 24.8157L102.184 25.0714C102.124 24.8867 102.028 24.7109 101.896 24.544C101.768 24.3771 101.594 24.2404 101.374 24.1339C101.154 24.0273 100.879 23.9741 100.549 23.9741C100.098 23.9741 99.7212 24.0753 99.4194 24.2777C99.1175 24.4766 98.9666 24.734 98.9666 25.0501C98.9666 25.3235 99.0678 25.5437 99.2702 25.7106C99.4727 25.8775 99.7994 26.0142 100.25 26.1207L101.55 26.419C102.303 26.593 102.864 26.8612 103.233 27.2234C103.603 27.5856 103.787 28.0561 103.787 28.6349C103.787 29.125 103.645 29.5618 103.361 29.9453C103.081 30.3253 102.688 30.6236 102.184 30.8402C101.683 31.0568 101.103 31.1651 100.442 31.1651C99.5259 31.1651 98.7784 30.9698 98.1996 30.5792C97.6207 30.185 97.2656 29.6257 97.1342 28.9013L98.6737 28.6669C98.7695 29.0682 98.9666 29.3718 99.2649 29.5778C99.5632 29.7802 99.9521 29.8814 100.431 29.8814C100.953 29.8814 101.371 29.7731 101.683 29.5565C101.996 29.3363 102.152 29.0682 102.152 28.7521C102.152 28.4964 102.056 28.2816 101.864 28.1076C101.676 27.9336 101.387 27.8022 100.996 27.7134L99.6112 27.4098C98.8477 27.2358 98.283 26.9588 97.9173 26.5788C97.555 26.1989 97.3739 25.7177 97.3739 25.1353C97.3739 24.6523 97.5089 24.2298 97.7788 23.8675C98.0487 23.5053 98.4215 23.223 98.8974 23.0206C99.3732 22.8146 99.9183 22.7116 100.533 22.7116C101.417 22.7116 102.113 22.9034 102.621 23.2869C103.129 23.6669 103.464 24.1765 103.627 24.8157Z" fill="#1D1E20"/>
<defs>
<clipPath id="clip0_1_61">
<rect width="25" height="17" fill="white" transform="translate(12 17)"/>
</clipPath>
</defs>
</svg>
