<svg width="91" height="50" viewBox="0 0 91 50" fill="none" xmlns="http://www.w3.org/2000/svg">
<rect width="91" height="50" rx="10" fill="#F5F6FA"/>
<rect x="6" y="5" width="40" height="40" rx="10" fill="#FEFEFE"/>
<path d="M57.1985 31H58.8445V26.2433H63.4787V24.8317H58.8445V21.5078H63.9634V20.0909H57.1985V31ZM65.8597 31H67.4524V22.8182H65.8597V31ZM66.6641 21.5558C67.2127 21.5558 67.6708 21.1296 67.6708 20.6076C67.6708 20.0856 67.2127 19.6541 66.6641 19.6541C66.1101 19.6541 65.6573 20.0856 65.6573 20.6076C65.6573 21.1296 66.1101 21.5558 66.6641 21.5558ZM71.1878 20.0909H69.5951V31H71.1878V20.0909ZM75.7115 31.1811C77.0645 31.1811 77.8262 30.494 78.1298 29.8814H78.1937V31H79.7491V25.5668C79.7491 23.1857 77.8741 22.7116 76.5744 22.7116C75.0936 22.7116 73.7299 23.3082 73.1973 24.7997L74.6941 25.1406C74.9284 24.56 75.525 24.0007 76.5957 24.0007C77.6238 24.0007 78.1511 24.5387 78.1511 25.4656V25.5028C78.1511 26.0835 77.5545 26.0728 76.0843 26.2433C74.5343 26.4244 72.9469 26.8292 72.9469 28.6882C72.9469 30.2969 74.1561 31.1811 75.7115 31.1811ZM76.0577 29.9027C75.1575 29.9027 74.5076 29.4979 74.5076 28.7095C74.5076 27.8572 75.264 27.5536 76.1855 27.4311C76.7022 27.3619 77.9274 27.2234 78.1564 26.9943V28.049C78.1564 29.0185 77.3841 29.9027 76.0577 29.9027Z" fill="#1D1E20"/>
<g clip-path="url(#clip0_1_76)">
<path d="M20.2541 21.2517C20.8732 21.2517 21.3752 21.7861 21.3752 22.4456C21.3752 23.1052 20.8732 23.6396 20.2541 23.6396H15.1274C14.5082 23.6396 14.0063 23.1052 14.0063 22.4456C14.0063 21.7861 14.5082 21.2517 15.1274 21.2517H20.2541Z" fill="#1D1E20"/>
<path d="M19.7388 24.3804C20.358 24.3804 20.8599 24.9149 20.8599 25.5744C20.8599 26.2338 20.358 26.7684 19.7388 26.7684H16.8209C16.572 26.7693 16.3683 26.979 16.3588 27.2414V28.7976C16.3588 29.457 15.8569 29.9916 15.2378 29.9916C14.6187 29.9916 14.1168 29.457 14.1168 28.7976V26.1492C14.1168 25.1724 14.8603 24.3803 15.7775 24.3803H19.7388V24.3804ZM21.8842 22.194C21.8842 21.5346 22.3862 21 23.0053 21C23.6245 21 24.1263 21.5346 24.1263 22.194V28.806C24.1263 29.4655 23.6245 30 23.0053 30C22.3862 30 21.8842 29.4654 21.8842 28.806V22.194ZM35.6818 27.6317L36.1323 27.6305C36.1765 27.6305 36.2189 27.6118 36.2502 27.5785C36.2814 27.5452 36.299 27.5 36.299 27.4529C36.2997 27.4296 36.2957 27.4064 36.2872 27.3849L34.6121 24.3867L31.9951 29.213C31.793 29.5862 31.43 29.7991 31.0533 29.8098C31.042 29.8115 31.0307 29.8123 31.0194 29.8123H26.7604C25.8432 29.8123 25.0996 29.0203 25.0996 28.0434V22.1941C25.0996 21.5346 25.6016 21 26.2207 21C26.8397 21 27.3417 21.5346 27.3417 22.194V26.932C27.3425 27.1972 27.5394 27.4143 27.7859 27.4242H30.1683C30.2296 27.4041 30.417 27.3362 30.474 27.2418L33.4665 21.7245C33.6935 21.3092 34.1159 21.0297 34.5994 21.0297C35.0831 21.0297 35.5055 21.3096 35.7316 21.7258L38.6475 26.94C38.8725 27.2515 38.9942 27.6336 38.9936 28.0266C38.9936 29.0128 38.243 29.8122 37.3172 29.8122H33.9183C33.3528 29.8122 32.8947 29.324 32.8947 28.7218C32.8947 28.1198 33.3528 27.6317 33.9183 27.6317H35.6818Z" fill="#1D1E20"/>
</g>
<defs>
<clipPath id="clip0_1_76">
<rect width="25" height="9" fill="white" transform="translate(14 21)"/>
</clipPath>
</defs>
</svg>
