<svg width="98" height="50" viewBox="0 0 98 50" fill="none" xmlns="http://www.w3.org/2000/svg">
<rect width="98" height="50" rx="10" fill="#F5F6FA"/>
<rect x="6" y="5" width="40" height="40" rx="10" fill="#FEFEFE"/>
<path fill-rule="evenodd" clip-rule="evenodd" d="M20.3581 26.7951C20.1513 26.7951 19.9895 26.9654 19.9895 27.2141C19.9895 27.4628 20.1522 27.6322 20.3581 27.6322C20.5639 27.6322 20.7267 27.4617 20.7267 27.2141C20.7267 26.9654 20.5647 26.7951 20.3581 26.7951ZM20.3581 27.5124C20.2107 27.5124 20.1013 27.3856 20.1013 27.2141C20.1013 27.0427 20.2098 26.9149 20.3581 26.9149C20.5045 26.9149 20.6147 27.0447 20.6147 27.2141C20.6147 27.3825 20.5036 27.5124 20.3581 27.5124ZM23.9449 25.3296H22.1505L22.3544 21.6556L21.1891 25.3296H19.5228L22.1667 17.0254H23.9398L23.7351 20.7498L24.9225 17.0254H26.589L23.9449 25.3296ZM24.1614 25.3296L26.8052 17.0254H28.4715L25.8277 25.3296H24.1614Z" fill="#1D1E20"/>
<path fill-rule="evenodd" clip-rule="evenodd" d="M19.3306 22.4673C17.002 25.6885 14.8055 29.9744 16.7457 31.9481C18.6257 33.8607 20.9757 32.7283 22.578 31.9733C24.1803 31.2183 41.8904 22.159 41.8904 22.159C42.0613 22.0583 42.0293 21.9325 41.8156 21.9953C41.7295 22.0207 22.5353 28.148 22.5353 28.148C20.0996 28.9535 17.3224 27.1981 19.3306 22.4673Z" fill="#1D1E20"/>
<path fill-rule="evenodd" clip-rule="evenodd" d="M20.4209 27.2436C20.4726 27.2406 20.513 27.2092 20.513 27.1249C20.513 27.0162 20.4527 26.9889 20.3519 26.9889H20.2072V27.4395H20.3037V27.2477H20.32L20.4079 27.4395H20.519L20.4209 27.2436ZM20.3589 27.1706H20.3039V27.066H20.3503C20.3788 27.066 20.4114 27.0699 20.4114 27.1136C20.4114 27.1604 20.3925 27.1706 20.3589 27.1706ZM37.1088 17C36.9021 17 36.7402 17.1705 36.7402 17.419C36.7402 17.6676 36.9031 17.837 37.1088 17.837C37.3146 17.837 37.4775 17.6665 37.4775 17.419C37.4776 17.1705 37.3157 17 37.1088 17ZM37.1088 17.7175C36.9614 17.7175 36.8521 17.5907 36.8521 17.4192C36.8521 17.2478 36.9606 17.12 37.1088 17.12C37.2553 17.12 37.3656 17.2498 37.3656 17.4192C37.3656 17.5876 37.2545 17.7175 37.1088 17.7175Z" fill="#1D1E20"/>
<path fill-rule="evenodd" clip-rule="evenodd" d="M37.1718 17.4485C37.2235 17.4455 37.264 17.4141 37.264 17.3298C37.264 17.2211 37.2036 17.1938 37.103 17.1938H36.9582V17.6442H37.0547V17.4526H37.0711L37.1589 17.6442H37.27L37.1718 17.4485ZM37.1097 17.3755H37.0547V17.2709H37.1012C37.1296 17.2709 37.1623 17.275 37.1623 17.3187C37.1623 17.3653 37.1433 17.3755 37.1097 17.3755ZM36.0109 18.4095L36.4587 17.0254H31.3742L29.6284 19.5167L30.4344 17.0254H28.7467L26.124 25.3297H27.7903L28.9101 21.857L28.9868 25.3297L34.0998 25.3166L34.5865 23.7192H32.6425L33.2812 21.7061H34.8834L35.3764 20.1585H33.7742L34.3235 18.4095H36.0109ZM30.6399 24.776L30.5331 20.4478L33.0525 17.1894L30.6399 24.776Z" fill="#1D1E20"/>
<path d="M66.0036 20.0909H64.3736V28.1023H64.2724L58.7219 20.0909H57.1985V31H58.8445V22.9993H58.9457L64.4908 31H66.0036V20.0909ZM68.2767 31H69.8694V22.8182H68.2767V31ZM69.0811 21.5558C69.6297 21.5558 70.0878 21.1296 70.0878 20.6076C70.0878 20.0856 69.6297 19.6541 69.0811 19.6541C68.5271 19.6541 68.0743 20.0856 68.0743 20.6076C68.0743 21.1296 68.5271 21.5558 69.0811 21.5558ZM72.0121 31H73.6048V28.0969L74.3984 27.3033L77.179 31H79.1339L75.5969 26.3285L78.9102 22.8182H77.0032L73.7433 26.2805H73.6048V20.0909H72.0121V31ZM83.551 31.1651C85.3355 31.1651 86.5979 30.2862 86.9601 28.9545L85.4527 28.6829C85.165 29.4553 84.4726 29.8494 83.567 29.8494C82.2034 29.8494 81.2872 28.9652 81.2446 27.3885H87.0613V26.8239C87.0613 23.8675 85.2929 22.7116 83.4392 22.7116C81.1594 22.7116 79.6572 24.4482 79.6572 26.9624C79.6572 29.5032 81.1381 31.1651 83.551 31.1651ZM81.2499 26.1953C81.3138 25.0341 82.1555 24.0273 83.4498 24.0273C84.6856 24.0273 85.4953 24.9435 85.5006 26.1953H81.2499Z" fill="#1D1E20"/>
</svg>
