<svg width="21" height="50" viewBox="0 0 21 50" fill="none" xmlns="http://www.w3.org/2000/svg">
<rect width="106" height="50" rx="10" fill="#F5F6FA"/>
<rect x="5" y="5" width="40" height="40" rx="10" fill="#FEFEFE"/>
<g clip-path="url(#clip0_1_83)">
<path d="M26.4214 18.588C26.3399 18.6002 26.2616 18.8915 26.1041 19.0432C25.989 19.1527 25.8452 19.1458 25.7689 19.2812C25.7399 19.3318 25.7493 19.4181 25.7164 19.501C25.6522 19.6668 25.4258 19.6816 25.4258 19.8622C25.425 20.0573 25.6146 20.0946 25.7787 20.233C25.9067 20.3444 25.9193 20.4212 26.0743 20.4752C26.2067 20.5189 26.4037 20.3759 26.5811 20.4273C26.7268 20.4695 26.8663 20.4999 26.8992 20.6451C26.9281 20.779 26.8972 20.9866 26.7206 20.9626C26.661 20.9562 26.4029 20.8718 26.0857 20.9045C25.7031 20.9467 25.2664 21.0679 25.2237 21.4821C25.2002 21.7136 25.4951 21.9866 25.7798 21.9311C25.9768 21.8934 25.8836 21.668 25.9909 21.5585C26.1315 21.4182 26.9281 22.0482 27.6687 22.0482C27.9805 22.0482 28.2123 21.9718 28.4427 21.7376C28.4642 21.7197 28.4904 21.6813 28.5237 21.679C28.5551 21.6813 28.6099 21.7113 28.6279 21.7243C29.2244 22.1897 29.6752 23.1232 31.8672 23.1342C32.1754 23.1357 32.5267 23.2787 32.8134 23.5327C33.0692 23.7624 33.2188 24.1194 33.3641 24.4817C33.5834 25.0255 33.9766 25.5544 34.5727 26.143C34.6052 26.1746 35.0959 26.545 35.1351 26.5727C35.1414 26.5765 35.1774 26.6602 35.1649 26.7069C35.1504 27.0598 35.0975 28.086 35.8855 28.1324C36.0782 28.1419 36.0277 28.0104 36.0277 27.9199C36.0273 27.7412 35.9936 27.5636 36.0907 27.3807C36.2235 27.129 35.8091 27.013 35.8213 26.4689C35.8299 26.0632 35.479 26.1324 35.3008 25.8232C35.1982 25.6441 35.1069 25.5491 35.1136 25.33C35.1535 24.0973 34.8433 23.2874 34.6886 23.0886C34.568 22.9384 34.4681 22.8787 34.5786 22.8091C35.2362 22.3874 35.3854 21.995 35.3854 21.995C35.7351 21.1969 36.0496 20.4679 36.4832 20.147C36.5705 20.0808 36.7945 19.9185 36.932 19.8546C37.3365 19.6694 37.5496 19.5573 37.6671 19.4462C37.8531 19.2702 38 18.9033 37.8218 18.6808C37.6001 18.4063 37.2167 18.6242 37.0475 18.7215C35.8385 19.4181 35.6603 20.647 35.2416 21.3528C34.9076 21.9166 34.3643 22.3307 33.8787 22.3646C33.5145 22.3908 33.122 22.3193 32.7312 22.1528C31.7807 21.7482 31.2605 21.2258 31.138 21.1334C30.8826 20.9421 28.9001 19.0527 27.2939 18.9755C27.2939 18.9755 27.0946 18.588 27.0445 18.5816C26.9269 18.5671 26.8067 18.8131 26.7206 18.8417C26.6395 18.8679 26.5032 18.5751 26.4214 18.588V18.588ZM19.3506 29.8648C19.1994 29.8614 19.0709 29.7409 19.0709 29.5918L19.0713 24.7278H17.4201V30.0895C17.4201 30.3523 17.6394 30.5667 17.9085 30.5667H20.7946C21.0656 30.5667 21.2822 30.3523 21.2822 30.0895V24.7278H19.6326L19.631 29.5918C19.631 29.7409 19.5025 29.8614 19.3506 29.8648ZM24.879 24.7278H22.3799C22.0843 24.7278 21.8434 24.9612 21.8434 25.2514V30.5667H23.4961V25.6909C23.4973 25.5415 23.6218 25.4233 23.7754 25.4233C23.9297 25.4233 24.0534 25.5388 24.0569 25.6868V30.5667H25.703V25.6867C25.705 25.5388 25.8288 25.4232 25.9827 25.4232C26.1354 25.4232 26.2615 25.5415 26.2627 25.6909V30.5667H27.9155V25.2514C27.9155 24.9612 27.6742 24.7278 27.3785 24.7278H24.879ZM15.2104 25.7012C15.2116 25.5388 15.0753 25.4232 14.9308 25.4232H14.6504V28.3765H14.9308C15.0765 28.3765 15.2117 28.264 15.2104 28.1024V25.7012ZM16.3184 29.0994H14.6504V30.5667H13V24.7278H16.329C16.627 24.7278 16.8597 24.9628 16.8597 25.2537V28.5735C16.8597 28.8648 16.618 29.0994 16.3184 29.0994ZM33.5791 29.261C33.2474 29.261 32.9689 29.5393 32.9689 29.8766C32.9689 30.215 33.2474 30.4911 33.5897 30.4911C33.9292 30.4911 34.2042 30.215 34.2042 29.8766C34.2042 29.5386 33.9292 29.261 33.5896 29.261H33.5791ZM34.3224 29.8747C34.3224 30.2713 33.995 30.5937 33.5897 30.5937C33.18 30.5937 32.851 30.2736 32.851 29.8747C32.851 29.4834 33.18 29.1564 33.5775 29.1564C33.995 29.1564 34.3224 29.4736 34.3224 29.8747Z" fill="#1D1E20"/>
</g>
<defs>
<clipPath id="clip0_1_83">
<rect width="25" height="13" fill="white" transform="translate(13 18)"/>
</clipPath>
</defs>
</svg>
